<svg width="12" height="12" viewBox="0 0 12 12" fill="none" xmlns="http://www.w3.org/2000/svg">
<g clip-path="url(#clip0_1_394)">
<path d="M5.75694 1.14642C5.77883 1.10219 5.81264 1.06497 5.85457 1.03894C5.8965 1.01291 5.94486 0.999115 5.99421 0.999115C6.04356 0.999115 6.09193 1.01291 6.13385 1.03894C6.17578 1.06497 6.2096 1.10219 6.23149 1.14642L7.38539 3.48371C7.46141 3.63754 7.57362 3.77064 7.71239 3.87157C7.85117 3.97249 8.01236 4.03824 8.18214 4.06316L10.7627 4.4408C10.8116 4.44788 10.8575 4.46851 10.8953 4.50034C10.9331 4.53218 10.9612 4.57395 10.9765 4.62093C10.9918 4.66792 10.9936 4.71824 10.9818 4.76621C10.9699 4.81418 10.9449 4.85788 10.9096 4.89237L9.04332 6.70965C8.92025 6.82959 8.82816 6.97764 8.77499 7.14105C8.72183 7.30447 8.70917 7.47836 8.73811 7.64776L9.17869 10.2153C9.18732 10.2642 9.18204 10.3145 9.16346 10.3605C9.14487 10.4065 9.11372 10.4464 9.07356 10.4756C9.03341 10.5047 8.98586 10.522 8.93636 10.5255C8.88685 10.5289 8.83736 10.5184 8.79356 10.4951L6.48674 9.28221C6.33475 9.2024 6.16564 9.1607 5.99396 9.1607C5.82228 9.1607 5.65318 9.2024 5.50118 9.28221L3.19486 10.4951C3.15107 10.5182 3.10165 10.5287 3.05223 10.5252C3.0028 10.5216 2.95535 10.5043 2.91528 10.4752C2.8752 10.446 2.84411 10.4062 2.82554 10.3603C2.80697 10.3144 2.80167 10.2641 2.81023 10.2153L3.25031 7.64826C3.27938 7.47879 3.26679 7.30478 3.21362 7.14126C3.16044 6.97774 3.06829 6.82961 2.9451 6.70965L1.07887 4.89287C1.0432 4.85842 1.01792 4.81464 1.00592 4.76653C0.993916 4.71841 0.995667 4.66789 1.01097 4.62072C1.02628 4.57356 1.05453 4.53163 1.0925 4.49974C1.13046 4.46784 1.17663 4.44724 1.22573 4.4403L3.80579 4.06316C3.97575 4.03843 4.13717 3.97277 4.27613 3.87183C4.4151 3.77089 4.52745 3.6377 4.60353 3.48371L5.75694 1.14642Z" fill="#FA782D" stroke="#FA782D" stroke-width="0.999053" stroke-linecap="round" stroke-linejoin="round"/>
</g>
<defs>
<clipPath id="clip0_1_394">
<rect width="11.9886" height="11.9886" fill="white"/>
</clipPath>
</defs>
</svg>
