<svg width="12" height="12" viewBox="0 0 12 12" fill="none" xmlns="http://www.w3.org/2000/svg">
<g clip-path="url(#clip0_1_474)">
<path d="M5.75694 1.14639C5.77883 1.10216 5.81264 1.06494 5.85457 1.03891C5.8965 1.01288 5.94486 0.999084 5.99421 0.999084C6.04356 0.999084 6.09193 1.01288 6.13385 1.03891C6.17578 1.06494 6.2096 1.10216 6.23149 1.14639L7.38539 3.48368C7.46141 3.63751 7.57362 3.77061 7.71239 3.87154C7.85117 3.97246 8.01236 4.03821 8.18214 4.06313L10.7627 4.44077C10.8116 4.44785 10.8575 4.46848 10.8953 4.50031C10.9331 4.53215 10.9612 4.57392 10.9765 4.6209C10.9918 4.66789 10.9936 4.71821 10.9818 4.76618C10.9699 4.81415 10.9449 4.85785 10.9096 4.89234L9.04332 6.70962C8.92025 6.82956 8.82816 6.97761 8.77499 7.14102C8.72183 7.30444 8.70917 7.47833 8.73811 7.64773L9.17869 10.2153C9.18732 10.2642 9.18204 10.3145 9.16346 10.3605C9.14487 10.4065 9.11372 10.4464 9.07356 10.4755C9.03341 10.5047 8.98586 10.522 8.93636 10.5254C8.88685 10.5289 8.83736 10.5184 8.79356 10.495L6.48674 9.28218C6.33475 9.20237 6.16564 9.16067 5.99396 9.16067C5.82228 9.16067 5.65318 9.20237 5.50118 9.28218L3.19486 10.495C3.15107 10.5182 3.10165 10.5286 3.05223 10.5251C3.0028 10.5216 2.95535 10.5043 2.91528 10.4752C2.8752 10.446 2.84411 10.4062 2.82554 10.3603C2.80697 10.3143 2.80167 10.2641 2.81023 10.2153L3.25031 7.64823C3.27938 7.47876 3.26679 7.30475 3.21362 7.14123C3.16044 6.97771 3.06829 6.82958 2.9451 6.70962L1.07887 4.89284C1.0432 4.85839 1.01792 4.81461 1.00592 4.7665C0.993916 4.71838 0.995667 4.66786 1.01097 4.62069C1.02628 4.57352 1.05453 4.5316 1.0925 4.4997C1.13046 4.46781 1.17663 4.44721 1.22573 4.44027L3.80579 4.06313C3.97575 4.0384 4.13717 3.97274 4.27613 3.8718C4.4151 3.77086 4.52745 3.63767 4.60353 3.48368L5.75694 1.14639Z" fill="#FA782D" stroke="#FA782D" stroke-width="0.999053" stroke-linecap="round" stroke-linejoin="round"/>
</g>
<defs>
<clipPath id="clip0_1_474">
<rect width="11.9886" height="11.9886" fill="white"/>
</clipPath>
</defs>
</svg>
