<svg preserveAspectRatio="none" width="100%" height="100%" overflow="visible" style="display: block;" viewBox="0 0 17.9972 17.9972" fill="none" xmlns="http://www.w3.org/2000/svg">
<g id="Icon" clip-path="url(#clip0_0_27)">
<path id="Vector" d="M13.4979 5.99905C14.7403 5.99905 15.7475 4.99185 15.7475 3.74941C15.7475 2.50696 14.7403 1.49976 13.4979 1.49976C12.2554 1.49976 11.2482 2.50696 11.2482 3.74941C11.2482 4.99185 12.2554 5.99905 13.4979 5.99905Z" stroke="var(--stroke-0, #585894)" stroke-width="1.49976" stroke-linecap="round" stroke-linejoin="round"/>
<path id="Vector_2" d="M4.49929 11.2482C5.74173 11.2482 6.74893 10.241 6.74893 8.99858C6.74893 7.75613 5.74173 6.74893 4.49929 6.74893C3.25685 6.74893 2.24964 7.75613 2.24964 8.99858C2.24964 10.241 3.25685 11.2482 4.49929 11.2482Z" stroke="var(--stroke-0, #585894)" stroke-width="1.49976" stroke-linecap="round" stroke-linejoin="round"/>
<path id="Vector_3" d="M13.4979 16.4974C14.7403 16.4974 15.7475 15.4902 15.7475 14.2477C15.7475 13.0053 14.7403 11.9981 13.4979 11.9981C12.2554 11.9981 11.2482 13.0053 11.2482 14.2477C11.2482 15.4902 12.2554 16.4974 13.4979 16.4974Z" stroke="var(--stroke-0, #585894)" stroke-width="1.49976" stroke-linecap="round" stroke-linejoin="round"/>
<path id="Vector_4" d="M6.44148 10.1309L11.5632 13.1154" stroke="var(--stroke-0, #585894)" stroke-width="1.49976" stroke-linecap="round" stroke-linejoin="round"/>
<path id="Vector_5" d="M11.5557 4.88173L6.44148 7.86626" stroke="var(--stroke-0, #585894)" stroke-width="1.49976" stroke-linecap="round" stroke-linejoin="round"/>
</g>
<defs>
<clipPath id="clip0_0_27">
<rect width="17.9972" height="17.9972" fill="white"/>
</clipPath>
</defs>
</svg>
