<svg preserveAspectRatio="none" width="100%" height="100%" overflow="visible" style="display: block;" viewBox="0 0 15.9943 15.9943" fill="none" xmlns="http://www.w3.org/2000/svg">
<g id="Icon" clip-path="url(#clip0_0_25)">
<path id="Vector" d="M7.6806 1.52946C7.70981 1.47045 7.75493 1.42078 7.81086 1.38606C7.86679 1.35133 7.93132 1.33293 7.99716 1.33293C8.063 1.33293 8.12752 1.35133 8.18346 1.38606C8.23939 1.42078 8.28451 1.47045 8.31371 1.52946L9.85317 4.64768C9.95458 4.85292 10.1043 5.03048 10.2894 5.16513C10.4746 5.29978 10.6896 5.38749 10.9161 5.42074L14.3589 5.92456C14.4241 5.93401 14.4854 5.96153 14.5358 6.004C14.5862 6.04647 14.6238 6.1022 14.6441 6.16488C14.6645 6.22756 14.667 6.2947 14.6512 6.3587C14.6354 6.4227 14.602 6.481 14.5548 6.52701L12.065 8.95149C11.9009 9.1115 11.778 9.30901 11.7071 9.52703C11.6361 9.74506 11.6192 9.97705 11.6579 10.203L12.2457 13.6285C12.2572 13.6937 12.2501 13.7608 12.2253 13.8222C12.2005 13.8836 12.159 13.9368 12.1054 13.9757C12.0518 14.0146 11.9884 14.0377 11.9223 14.0423C11.8563 14.0469 11.7903 14.0328 11.7318 14.0017L8.65426 12.3836C8.45148 12.2771 8.22586 12.2215 7.99683 12.2215C7.76779 12.2215 7.54218 12.2771 7.33939 12.3836L4.26249 14.0017C4.20406 14.0326 4.13813 14.0465 4.07219 14.0418C4.00625 14.0372 3.94294 14.0141 3.88948 13.9752C3.83602 13.9363 3.79454 13.8832 3.76976 13.8219C3.74499 13.7606 3.73791 13.6936 3.74933 13.6285L4.33646 10.2037C4.37524 9.97761 4.35844 9.74547 4.2875 9.52731C4.21656 9.30916 4.09362 9.11153 3.92927 8.95149L1.43949 6.52768C1.3919 6.48172 1.35818 6.42332 1.34216 6.35912C1.32615 6.29493 1.32849 6.22753 1.34891 6.1646C1.36933 6.10167 1.40701 6.04575 1.45767 6.00319C1.50832 5.96063 1.56991 5.93316 1.63542 5.9239L5.07753 5.42074C5.30429 5.38775 5.51963 5.30016 5.70503 5.16549C5.89043 5.03082 6.04032 4.85312 6.14182 4.64768L7.6806 1.52946Z" fill="var(--fill-0, #FA782D)" stroke="var(--stroke-0, #FA782D)" stroke-width="1.33286" stroke-linecap="round" stroke-linejoin="round"/>
</g>
<defs>
<clipPath id="clip0_0_25">
<rect width="15.9943" height="15.9943" fill="white"/>
</clipPath>
</defs>
</svg>
