<svg preserveAspectRatio="none" width="100%" height="100%" overflow="visible" style="display: block;" viewBox="0 0 23.9915 23.9915" fill="none" xmlns="http://www.w3.org/2000/svg">
<g id="Icon">
<path id="Vector" d="M5.99787 8.9968C7.65413 8.9968 8.9968 7.65413 8.9968 5.99787C8.9968 4.3416 7.65413 2.99893 5.99787 2.99893C4.3416 2.99893 2.99893 4.3416 2.99893 5.99787C2.99893 7.65413 4.3416 8.9968 5.99787 8.9968Z" stroke="var(--stroke-0, #585894)" stroke-width="1.49947" stroke-linecap="round" stroke-linejoin="round"/>
<path id="Vector_2" d="M8.11712 8.11712L11.9957 11.9957" stroke="var(--stroke-0, #585894)" stroke-width="1.49947" stroke-linecap="round" stroke-linejoin="round"/>
<path id="Vector_3" d="M19.9929 3.99858L8.11712 15.8744" stroke="var(--stroke-0, #585894)" stroke-width="1.49947" stroke-linecap="round" stroke-linejoin="round"/>
<path id="Vector_4" d="M5.99787 20.9925C7.65413 20.9925 8.9968 19.6499 8.9968 17.9936C8.9968 16.3373 7.65413 14.9947 5.99787 14.9947C4.3416 14.9947 2.99893 16.3373 2.99893 17.9936C2.99893 19.6499 4.3416 20.9925 5.99787 20.9925Z" stroke="var(--stroke-0, #585894)" stroke-width="1.49947" stroke-linecap="round" stroke-linejoin="round"/>
<path id="Vector_5" d="M14.7947 14.7947L19.9929 19.9929" stroke="var(--stroke-0, #585894)" stroke-width="1.49947" stroke-linecap="round" stroke-linejoin="round"/>
</g>
</svg>
