<svg preserveAspectRatio="none" width="100%" height="100%" overflow="visible" style="display: block;" viewBox="0 0 23.9915 23.9915" fill="none" xmlns="http://www.w3.org/2000/svg">
<g id="Icon">
<path id="Vector" d="M10.9961 21.7223C11.3 21.8978 11.6448 21.9901 11.9957 21.9901C12.3467 21.9901 12.6915 21.8978 12.9954 21.7223L19.9929 17.7237C20.2965 17.5484 20.5487 17.2963 20.7242 16.9928C20.8996 16.6893 20.9922 16.3449 20.9925 15.9943V7.99716C20.9922 7.64656 20.8996 7.30222 20.7242 6.99868C20.5487 6.69514 20.2965 6.44307 19.9929 6.26777L12.9954 2.26919C12.6915 2.09372 12.3467 2.00134 11.9957 2.00134C11.6448 2.00134 11.3 2.09372 10.9961 2.26919L3.99858 6.26777C3.69495 6.44307 3.44276 6.69514 3.2673 6.99868C3.09184 7.30222 2.99929 7.64656 2.99893 7.99716V15.9943C2.99929 16.3449 3.09184 16.6893 3.2673 16.9928C3.44276 17.2963 3.69495 17.5484 3.99858 17.7237L10.9961 21.7223Z" stroke="var(--stroke-0, #585894)" stroke-width="1.49947" stroke-linecap="round" stroke-linejoin="round"/>
<path id="Vector_2" d="M11.9957 21.9922V11.9957" stroke="var(--stroke-0, #585894)" stroke-width="1.49947" stroke-linecap="round" stroke-linejoin="round"/>
<path id="Vector_3" d="M3.28883 6.99751L11.9957 11.9957L20.7026 6.99751" stroke="var(--stroke-0, #585894)" stroke-width="1.49947" stroke-linecap="round" stroke-linejoin="round"/>
<path id="Vector_4" d="M7.49734 4.26848L16.4941 9.41665" stroke="var(--stroke-0, #585894)" stroke-width="1.49947" stroke-linecap="round" stroke-linejoin="round"/>
</g>
</svg>
