<svg preserveAspectRatio="none" width="100%" height="100%" overflow="visible" style="display: block;" viewBox="0 0 23.9915 23.9915" fill="none" xmlns="http://www.w3.org/2000/svg">
<g id="Icon">
<path id="Vector" d="M2.99893 11.9957C2.99893 13.7751 3.52659 15.5146 4.51517 16.9941C5.50375 18.4736 6.90886 19.6268 8.55281 20.3077C10.1968 20.9886 12.0057 21.1668 13.7509 20.8197C15.4961 20.4725 17.0992 19.6157 18.3574 18.3574C19.6157 17.0992 20.4725 15.4961 20.8197 13.7509C21.1668 12.0057 20.9886 10.1968 20.3077 8.55281C19.6268 6.90886 18.4736 5.50375 16.9941 4.51517C15.5146 3.52659 13.7751 2.99893 11.9957 2.99893C9.48058 3.0084 7.06646 3.98981 5.25813 5.73796L2.99893 7.99716" stroke="var(--stroke-0, #585894)" stroke-width="1.49947" stroke-linecap="round" stroke-linejoin="round"/>
<path id="Vector_2" d="M2.99893 2.99893V7.99716H7.99716" stroke="var(--stroke-0, #585894)" stroke-width="1.49947" stroke-linecap="round" stroke-linejoin="round"/>
</g>
</svg>
