<svg preserveAspectRatio="none" width="100%" height="100%" overflow="visible" style="display: block;" viewBox="0 0 17.7841 17.9972" fill="none" xmlns="http://www.w3.org/2000/svg">
<g id="Icon" clip-path="url(#clip0_0_11)">
<path id="Vector" d="M14.0791 8.2576H3.70502C2.88653 8.2576 2.22301 8.92111 2.22301 9.7396V14.9266C2.22301 15.7451 2.88653 16.4086 3.70502 16.4086H14.0791C14.8976 16.4086 15.5611 15.7451 15.5611 14.9266V9.7396C15.5611 8.92111 14.8976 8.2576 14.0791 8.2576Z" stroke="var(--stroke-0, #C4C7C5)" stroke-width="1.48201" stroke-linecap="round" stroke-linejoin="round"/>
<path id="Vector_2" d="M5.18703 8.2576V5.29358C5.18703 4.31095 5.57738 3.36856 6.2722 2.67373C6.96703 1.97891 7.90942 1.58856 8.89205 1.58856C9.87468 1.58856 10.8171 1.97891 11.5119 2.67373C12.2067 3.36856 12.5971 4.31095 12.5971 5.29358V8.2576" stroke="var(--stroke-0, #C4C7C5)" stroke-width="1.48201" stroke-linecap="round" stroke-linejoin="round"/>
</g>
<defs>
<clipPath id="clip0_0_11">
<rect width="17.7841" height="17.9972" fill="white"/>
</clipPath>
</defs>
</svg>
