<svg preserveAspectRatio="none" width="100%" height="100%" overflow="visible" style="display: block;" viewBox="0 0 17.9972 17.9972" fill="none" xmlns="http://www.w3.org/2000/svg">
<g id="Icon">
<path id="Vector" d="M2.24965 8.9986C2.24965 10.3334 2.64547 11.6383 3.38705 12.7481C4.12864 13.858 5.18268 14.723 6.41589 15.2338C7.6491 15.7446 9.00609 15.8783 10.3153 15.6179C11.6244 15.3575 12.827 14.7147 13.7708 13.7708C14.7147 12.827 15.3575 11.6244 15.6179 10.3153C15.8783 9.00609 15.7446 7.6491 15.2338 6.41589C14.723 5.18268 13.858 4.12864 12.7481 3.38705C11.6383 2.64547 10.3334 2.24965 8.9986 2.24965C7.11186 2.25675 5.3009 2.99295 3.94439 4.30433L2.24965 5.99907" stroke="var(--stroke-0, #C4C7C5)" stroke-width="1.49977" stroke-linecap="round" stroke-linejoin="round"/>
<path id="Vector_2" d="M2.24965 2.24965V5.99907H5.99907" stroke="var(--stroke-0, #C4C7C5)" stroke-width="1.49977" stroke-linecap="round" stroke-linejoin="round"/>
<path id="Vector_3" d="M8.9986 5.24918V8.9986L11.9981 10.4984" stroke="var(--stroke-0, #C4C7C5)" stroke-width="1.49977" stroke-linecap="round" stroke-linejoin="round"/>
</g>
</svg>
