<svg preserveAspectRatio="none" width="100%" height="100%" overflow="visible" style="display: block;" viewBox="0 0 17.9972 17.9972" fill="none" xmlns="http://www.w3.org/2000/svg">
<g id="Icon" clip-path="url(#clip0_0_41)">
<path id="Vector" d="M8.24872 4.4993C9.07701 4.4993 9.74848 3.82783 9.74848 2.99953C9.74848 2.17123 9.07701 1.49977 8.24872 1.49977C7.42042 1.49977 6.74895 2.17123 6.74895 2.99953C6.74895 3.82783 7.42042 4.4993 8.24872 4.4993Z" stroke="var(--stroke-0, #C4C7C5)" stroke-width="1.49977" stroke-linecap="round" stroke-linejoin="round"/>
<path id="Vector_2" d="M13.4979 7.49883C14.3262 7.49883 14.9977 6.82736 14.9977 5.99907C14.9977 5.17077 14.3262 4.4993 13.4979 4.4993C12.6696 4.4993 11.9981 5.17077 11.9981 5.99907C11.9981 6.82736 12.6696 7.49883 13.4979 7.49883Z" stroke="var(--stroke-0, #C4C7C5)" stroke-width="1.49977" stroke-linecap="round" stroke-linejoin="round"/>
<path id="Vector_3" d="M14.9977 13.4979C15.826 13.4979 16.4974 12.8264 16.4974 11.9981C16.4974 11.1698 15.826 10.4984 14.9977 10.4984C14.1694 10.4984 13.4979 11.1698 13.4979 11.9981C13.4979 12.8264 14.1694 13.4979 14.9977 13.4979Z" stroke="var(--stroke-0, #C4C7C5)" stroke-width="1.49977" stroke-linecap="round" stroke-linejoin="round"/>
<path id="Vector_4" d="M6.74895 7.49883C7.24133 7.49883 7.72889 7.59581 8.18379 7.78424C8.63869 7.97267 9.05202 8.24885 9.40019 8.59701C9.74835 8.94518 10.0245 9.35851 10.213 9.81341C10.4014 10.2683 10.4984 10.7559 10.4984 11.2482V13.8728C10.4982 14.5001 10.2733 15.1065 9.86458 15.5823C9.45583 16.0581 8.89021 16.3717 8.27016 16.4665C7.6501 16.5612 7.01662 16.4307 6.48446 16.0987C5.9523 15.7667 5.55665 15.255 5.36916 14.6565C5.04921 13.6241 4.37432 12.948 3.34448 12.628C2.74621 12.4407 2.23478 12.0453 1.90272 11.5135C1.57067 10.9818 1.43994 10.3487 1.53418 9.72889C1.62842 9.10909 1.9414 8.54349 2.4165 8.13445C2.8916 7.7254 3.49743 7.49993 4.12436 7.49883H6.74895Z" stroke="var(--stroke-0, #C4C7C5)" stroke-width="1.49977" stroke-linecap="round" stroke-linejoin="round"/>
</g>
<defs>
<clipPath id="clip0_0_41">
<rect width="17.9972" height="17.9972" fill="white"/>
</clipPath>
</defs>
</svg>
