<svg preserveAspectRatio="none" width="100%" height="100%" overflow="visible" style="display: block;" viewBox="0 0 17.9972 17.9972" fill="none" xmlns="http://www.w3.org/2000/svg">
<g id="Icon" clip-path="url(#clip0_0_46)">
<path id="Vector" d="M14.9977 7.49883C14.9977 11.243 10.8441 15.1424 9.44928 16.3467C9.31934 16.4444 9.16117 16.4972 8.9986 16.4972C8.83603 16.4972 8.67786 16.4444 8.54792 16.3467C7.15314 15.1424 2.99953 11.243 2.99953 7.49883C2.99953 5.90778 3.63158 4.3819 4.75662 3.25685C5.88166 2.13181 7.40755 1.49977 8.9986 1.49977C10.5897 1.49977 12.1155 2.13181 13.2406 3.25685C14.3656 4.3819 14.9977 5.90778 14.9977 7.49883Z" stroke="var(--stroke-0, #C4C7C5)" stroke-width="1.49977" stroke-linecap="round" stroke-linejoin="round"/>
<path id="Vector_2" d="M8.9986 9.74848C10.241 9.74848 11.2483 8.74128 11.2483 7.49883C11.2483 6.25639 10.241 5.24918 8.9986 5.24918C7.75615 5.24918 6.74895 6.25639 6.74895 7.49883C6.74895 8.74128 7.75615 9.74848 8.9986 9.74848Z" stroke="var(--stroke-0, #C4C7C5)" stroke-width="1.49977" stroke-linecap="round" stroke-linejoin="round"/>
</g>
<defs>
<clipPath id="clip0_0_46">
<rect width="17.9972" height="17.9972" fill="white"/>
</clipPath>
</defs>
</svg>
