<svg preserveAspectRatio="none" width="100%" height="100%" overflow="visible" style="display: block;" viewBox="0 0 17.9972 17.9972" fill="none" xmlns="http://www.w3.org/2000/svg">
<g id="Icon" clip-path="url(#clip0_0_14)">
<path id="Vector" d="M1.54626 9.25956C1.48376 9.0912 1.48376 8.906 1.54626 8.73764C2.15494 7.26176 3.18814 5.99985 4.51488 5.11188C5.84161 4.22391 7.40213 3.74988 8.9986 3.74988C10.5951 3.74988 12.1556 4.22391 13.4823 5.11188C14.8091 5.99985 15.8423 7.26176 16.4509 8.73764C16.5134 8.906 16.5134 9.0912 16.4509 9.25956C15.8423 10.7354 14.8091 11.9974 13.4823 12.8853C12.1556 13.7733 10.5951 14.2473 8.9986 14.2473C7.40213 14.2473 5.84161 13.7733 4.51488 12.8853C3.18814 11.9974 2.15494 10.7354 1.54626 9.25956Z" stroke="var(--stroke-0, #FA782D)" stroke-width="1.49977" stroke-linecap="round" stroke-linejoin="round"/>
<path id="Vector_2" d="M8.9986 11.2483C10.241 11.2483 11.2483 10.241 11.2483 8.9986C11.2483 7.75615 10.241 6.74895 8.9986 6.74895C7.75615 6.74895 6.74895 7.75615 6.74895 8.9986C6.74895 10.241 7.75615 11.2483 8.9986 11.2483Z" stroke="var(--stroke-0, #FA782D)" stroke-width="1.49977" stroke-linecap="round" stroke-linejoin="round"/>
</g>
<defs>
<clipPath id="clip0_0_14">
<rect width="17.9972" height="17.9972" fill="white"/>
</clipPath>
</defs>
</svg>
