<svg preserveAspectRatio="none" width="100%" height="100%" overflow="visible" style="display: block;" viewBox="0 0 17.9972 17.9972" fill="none" xmlns="http://www.w3.org/2000/svg">
<g id="Icon" clip-path="url(#clip0_0_8)">
<path id="Vector" d="M7.6998 15.7476C7.83144 15.9755 8.02076 16.1648 8.24875 16.2965C8.47674 16.4281 8.73535 16.4974 8.9986 16.4974C9.26185 16.4974 9.52047 16.4281 9.74845 16.2965C9.97644 16.1648 10.1658 15.9755 10.2974 15.7476" stroke="var(--stroke-0, #C4C7C5)" stroke-width="1.49977" stroke-linecap="round" stroke-linejoin="round"/>
<path id="Vector_2" d="M2.44612 11.4927C2.34816 11.6001 2.28351 11.7336 2.26004 11.877C2.23657 12.0205 2.25529 12.1676 2.31392 12.3006C2.37255 12.4336 2.46857 12.5467 2.59029 12.6261C2.71201 12.7056 2.85419 12.7479 2.99953 12.748H14.9977C15.143 12.7481 15.2852 12.7059 15.407 12.6266C15.5288 12.5473 15.6249 12.4344 15.6837 12.3015C15.7425 12.1686 15.7614 12.0214 15.7381 11.878C15.7148 11.7345 15.6504 11.601 15.5526 11.4935C14.5552 10.4654 13.4979 9.37279 13.4979 5.99907C13.4979 4.80578 13.0239 3.66136 12.1801 2.81758C11.3363 1.9738 10.1919 1.49977 8.9986 1.49977C7.80531 1.49977 6.6609 1.9738 5.81711 2.81758C4.97333 3.66136 4.4993 4.80578 4.4993 5.99907C4.4993 9.37279 3.44121 10.4654 2.44612 11.4927Z" stroke="var(--stroke-0, #C4C7C5)" stroke-width="1.49977" stroke-linecap="round" stroke-linejoin="round"/>
</g>
<defs>
<clipPath id="clip0_0_8">
<rect width="17.9972" height="17.9972" fill="white"/>
</clipPath>
</defs>
</svg>
